<svg xmlns="http://www.w3.org/2000/svg" width="24" height="24" fill="none"><path fill="rgb(28, 76, 25)" fill-rule="evenodd" d="M7.78 4.686c-2.458.765-3.634 3.762-2.89 7.342.238 1.132 1.176 1.164 2.318.453 1.208-.766 2.631-2.372 3.677-4.432 1.121-2.231-.636-4.14-3.105-3.363Zm1.153.991c1.219.723.906 1.963-1.132 4.345l-1.186 1.391-.032-1.046c-.097-3.31.992-5.498 2.35-4.69Zm5.844 1.014c-1.671.776-4.226 4.097-4.226 5.499 0 .916.657.884 3.892-.194 2.555-.852 3.784-1.338 4.334-2.017 1.822-2.231-1.261-4.56-4-3.288ZM17.3 7.704c.571.874-.83 2.674-2.501 3.224-1.37.453-2.308.7-2.21.56.053-.064.387-.506.743-.98 1.682-2.232 3.504-3.515 3.968-2.804Zm-6.383 6.685c-2.36.41-3.213 2.027-.377 2.997.496.173 1.563.669 2.372 1.1 2.361 1.283 3.536 1.305 4.528.097.766-.927.572-2.415-.162-3.515-1.8-2.706-5.088-.905-6.36-.68Zm5.456 1.11c.614.313.593 1.025-.054 1.747-.873.97-1.607.917-3.687-.28l-1.51-.863c.237-.043 1.09-.183 2.512-.517 1.305-.324 2.221-.345 2.739-.087Z" clip-rule="evenodd"/></svg>