<svg xmlns="http://www.w3.org/2000/svg" width="24" height="24" fill="none"><g clip-path="url(#a)"><path fill="rgb(251, 232, 181)" fill-rule="evenodd" d="M6 0a.857.857 0 0 0-.796.538l-1.44 3.6h16.471l-1.44-3.6A.856.856 0 0 0 18 0H6Zm-.847 23.273L3.86 14.877h16.28l-1.293 8.396A.857.857 0 0 1 18 24H6a.857.857 0 0 1-.847-.727ZM3.627 6.28h16.747c1.029 0 1.86.724 1.86 1.615v3.227c0 .891-.833 1.611-1.86 1.611H3.626c-1.029 0-1.86-.72-1.86-1.611V7.894c0-.891.834-1.615 1.861-1.615Z" clip-rule="evenodd"/></g><defs><clipPath id="a"><path fill="#fff" d="M0 0h24v24H0z"/></clipPath></defs></svg>